# Blender 5.0.0
# www.blender.org
o greenbook
v -0.104600 -0.027067 0.159555
v -0.111279 -0.022100 0.159555
v -0.116403 -0.015627 0.159555
v -0.119625 -0.008089 0.159555
v -0.120724 0.000000 0.159555
v -0.119625 0.008089 0.159555
v -0.116403 0.015627 0.159555
v -0.111279 0.022100 0.159555
v -0.104600 0.027067 0.159555
v 0.120667 -0.027287 0.159555
v 0.120667 0.027287 0.159555
v -0.099973 0.027287 0.159555
v -0.099973 -0.027287 0.159555
v -0.101079 -0.026191 0.159555
v -0.101079 0.026191 0.159555
v -0.102737 0.026191 0.159555
v -0.102737 -0.026191 0.159555
v -0.103914 -0.024518 0.159555
v -0.109777 -0.020019 0.159555
v -0.114276 -0.014155 0.159555
v -0.117104 -0.007327 0.159555
v -0.118069 0.000000 0.159555
v -0.117104 0.007327 0.159555
v -0.114276 0.014155 0.159555
v -0.109777 0.020019 0.159555
v -0.103914 0.024518 0.159555
v 0.120667 -0.024717 0.159555
v 0.120667 0.024717 0.159555
v -0.099973 0.024717 0.159555
v -0.099973 -0.024717 0.159555
v -0.101079 -0.023724 0.159555
v -0.101079 0.023724 0.159555
v -0.102737 0.023724 0.159555
v -0.102737 -0.023724 0.159555
v -0.108325 -0.009605 0.159555
v -0.108325 -0.019209 0.159555
v -0.112462 -0.013583 0.159555
v -0.115062 -0.007031 0.159555
v -0.115949 0.000000 0.159555
v -0.115062 0.007031 0.159555
v -0.112462 0.013583 0.159555
v -0.108325 0.019209 0.159555
v 0.112592 -0.011859 0.159555
v 0.115385 -0.023717 0.159555
v 0.115385 0.023717 0.159555
v -0.101079 -0.011862 0.159555
v -0.101079 0.000000 0.159555
v 0.111442 0.000000 0.159555
v -0.102933 0.000000 0.159555
v -0.108325 0.000000 0.159555
v -0.112462 0.000000 0.159555
v -0.115062 0.000000 0.159555
v -0.115062 0.003516 0.159555
v -0.112462 0.006791 0.159555
v -0.108325 0.009605 0.159555
v 0.112592 0.011859 0.159555
v -0.101079 0.011862 0.159555
v -0.102835 0.011862 0.159555
v -0.102835 -0.011862 0.159555
v -0.115062 -0.003515 0.159555
v -0.112462 -0.006791 0.159555
v -0.104600 -0.027067 -0.159555
v -0.111279 -0.022100 -0.159555
v -0.116403 -0.015627 -0.159555
v -0.119625 -0.008089 -0.159555
v -0.120724 -0.000000 -0.159555
v -0.119625 0.008089 -0.159555
v -0.116403 0.015627 -0.159555
v -0.111279 0.022100 -0.159555
v -0.104600 0.027067 -0.159555
v 0.120667 -0.027287 -0.159555
v 0.120667 0.027287 -0.159555
v -0.099973 0.027287 -0.159555
v -0.099973 -0.027287 -0.159555
v -0.101079 -0.026191 -0.159555
v -0.101079 0.026191 -0.159555
v -0.102737 0.026191 -0.159555
v -0.102737 -0.026191 -0.159555
v -0.103914 -0.024518 -0.159555
v -0.109777 -0.020019 -0.159555
v -0.114276 -0.014155 -0.159555
v -0.117104 -0.007327 -0.159555
v -0.118069 -0.000000 -0.159555
v -0.117104 0.007327 -0.159555
v -0.114276 0.014155 -0.159555
v -0.109777 0.020019 -0.159555
v -0.103914 0.024518 -0.159555
v 0.120667 -0.024717 -0.159555
v 0.120667 0.024717 -0.159555
v -0.099973 0.024717 -0.159555
v -0.099973 -0.024717 -0.159555
v -0.101079 -0.023724 -0.159555
v -0.101079 0.023724 -0.159555
v -0.102737 0.023724 -0.159555
v -0.102737 -0.023724 -0.159555
v -0.108325 -0.009605 -0.159555
v -0.108325 -0.019209 -0.159555
v -0.112462 -0.013583 -0.159555
v -0.115062 -0.007031 -0.159555
v -0.115949 -0.000000 -0.159555
v -0.115062 0.007031 -0.159555
v -0.112462 0.013583 -0.159555
v -0.108325 0.019209 -0.159555
v 0.112592 -0.011859 -0.159555
v 0.115385 -0.023717 -0.159555
v 0.115385 0.023717 -0.159555
v -0.101079 -0.011862 -0.159555
v -0.101079 -0.000000 -0.159555
v 0.111442 -0.000000 -0.159555
v -0.102933 -0.000000 -0.159555
v -0.108325 -0.000000 -0.159555
v -0.112462 -0.000000 -0.159555
v -0.115062 -0.000000 -0.159555
v -0.115062 0.003515 -0.159555
v -0.112462 0.006791 -0.159555
v -0.108325 0.009605 -0.159555
v 0.112592 0.011859 -0.159555
v -0.101079 0.011862 -0.159555
v -0.102835 0.011862 -0.159555
v -0.102835 -0.011862 -0.159555
v -0.115062 -0.003516 -0.159555
v -0.112462 -0.006791 -0.159555
v -0.111279 -0.022100 -0.161701
v -0.104600 -0.027067 -0.161701
v -0.116403 -0.015627 -0.161701
v -0.119625 -0.008089 -0.161701
v -0.120724 -0.000000 -0.161701
v -0.119625 0.008089 -0.161701
v -0.116403 0.015627 -0.161701
v -0.111279 0.022100 -0.161701
v -0.104600 0.027067 -0.161701
v -0.099973 -0.027287 -0.161701
v 0.120667 -0.027287 -0.161701
v 0.120667 0.027287 -0.161701
v -0.099973 0.027287 -0.161701
v -0.101079 0.026191 -0.161701
v -0.101079 -0.026191 -0.161701
v -0.102737 -0.026191 -0.161701
v -0.102737 0.026191 -0.161701
v -0.109777 -0.020019 -0.161701
v -0.103914 -0.024518 -0.161701
v -0.114276 -0.014155 -0.161701
v -0.117104 -0.007327 -0.161701
v -0.118069 -0.000000 -0.161701
v -0.117104 0.007327 -0.161701
v -0.114276 0.014155 -0.161701
v -0.109777 0.020019 -0.161701
v -0.103914 0.024518 -0.161701
v -0.099973 -0.024717 -0.161701
v 0.120667 -0.024717 -0.161701
v 0.120667 0.024717 -0.161701
v -0.099973 0.024717 -0.161701
v -0.101079 0.023724 -0.161701
v -0.101079 -0.023724 -0.161701
v -0.102737 -0.023724 -0.161701
v -0.102737 0.023724 -0.161701
v -0.111279 -0.022100 0.161701
v -0.104600 -0.027067 0.161701
v -0.116403 -0.015627 0.161701
v -0.119625 -0.008089 0.161701
v -0.120724 0.000000 0.161701
v -0.119625 0.008089 0.161701
v -0.116403 0.015627 0.161701
v -0.111279 0.022100 0.161701
v -0.104600 0.027067 0.161701
v -0.099973 -0.027287 0.161701
v 0.120667 -0.027287 0.161701
v 0.120667 0.027287 0.161701
v -0.099973 0.027287 0.161701
v -0.101079 0.026191 0.161701
v -0.101079 -0.026191 0.161701
v -0.102737 -0.026191 0.161701
v -0.102737 0.026191 0.161701
v -0.109777 -0.020019 0.161701
v -0.103914 -0.024518 0.161701
v -0.114276 -0.014155 0.161701
v -0.117104 -0.007327 0.161701
v -0.118069 0.000000 0.161701
v -0.117104 0.007327 0.161701
v -0.114276 0.014155 0.161701
v -0.109777 0.020019 0.161701
v -0.103914 0.024518 0.161701
v -0.099973 -0.024717 0.161701
v 0.120667 -0.024717 0.161701
v 0.120667 0.024717 0.161701
v -0.099973 0.024717 0.161701
v -0.101079 0.023724 0.161701
v -0.101079 -0.023724 0.161701
v -0.102737 -0.023724 0.161701
v -0.102737 0.023724 0.161701
v 0.115622 0.027287 0.159555
v 0.115622 0.024717 0.159555
v 0.115622 0.027287 -0.159555
v 0.115622 0.024717 -0.159555
v 0.115622 0.027287 -0.161701
v 0.115622 0.024717 -0.161701
v 0.115622 0.027287 0.161701
v 0.115622 0.024717 0.161701
v 0.115622 -0.027287 0.159555
v 0.115622 -0.024717 0.159555
v 0.115622 -0.027287 -0.159555
v 0.115622 -0.024717 -0.159555
v 0.115622 -0.027287 -0.161701
v 0.115622 -0.024717 -0.161701
v 0.115622 -0.027287 0.161701
v 0.115622 -0.024717 0.161701
vn 0.2180 -0.9760 -0.0000
vn -0.0000 -1.0000 -0.0000
vn -0.7040 -0.7102 -0.0000
vn -0.0000 1.0000 -0.0000
vn -0.7040 0.7102 -0.0000
vn 0.7071 -0.7071 -0.0000
vn 0.6088 -0.7934 -0.0000
vn 0.8660 -0.5000 -0.0000
vn 0.9659 -0.2588 -0.0000
vn -0.5968 0.8024 -0.0000
vn -0.6963 0.7177 -0.0000
vn 1.0000 -0.0000 -0.0000
vn -0.8594 0.5114 -0.0000
vn 0.9659 0.2588 -0.0000
vn -0.0000 -0.0000 1.0000
vn -0.9639 0.2662 -0.0000
vn 0.8660 0.5000 -0.0000
vn -0.5589 0.8292 -0.0000
vn -1.0000 -0.0000 -0.0000
vn -0.0000 -0.0000 -1.0000
vn -0.8747 -0.4846 -0.0000
vn -0.9685 -0.2490 -0.0000
vn -0.6285 -0.7778 -0.0000
vn -0.7230 -0.6908 -0.0000
vn -0.9685 0.2490 -0.0000
vn 0.9731 -0.2302 -0.0000
vn 0.9866 -0.1633 -0.0000
vn -0.7230 0.6908 -0.0000
vn -0.6285 0.7778 -0.0000
vn -0.8747 0.4846 -0.0000
vn 0.2180 0.9760 -0.0000
vn 0.9866 0.1633 -0.0000
vn 0.9731 0.2302 -0.0000
vn -0.5968 -0.8024 -0.0000
vn -0.6963 -0.7177 -0.0000
vn 0.4254 0.9050 -0.0000
vn -0.8594 -0.5114 -0.0000
vn 0.4254 -0.9050 -0.0000
vn -0.9639 -0.2662 -0.0000
vn 0.7071 0.7071 -0.0000
vn 0.6088 0.7934 -0.0000
vn -0.5589 -0.8292 -0.0000
vn 0.6681 -0.7441 -0.0000
vn 0.6681 0.7441 -0.0000
vn 0.4255 0.9050 -0.0000
vn 0.4255 -0.9050 -0.0000
vn 0.9729 0.2312 -0.0000
vn 0.9729 -0.2312 -0.0000
vt 0.598029 0.540186
vt 0.596011 0.540186
vt 0.596011 0.537573
vt 0.598029 0.537573
vt 0.336698 0.087061
vt 0.330557 0.087061
vt 0.330557 0.084448
vt 0.336698 0.084448
vt 0.594116 0.540186
vt 0.594116 0.537573
vt 0.944552 0.087061
vt 0.682158 0.087061
vt 0.682158 0.084448
vt 0.944552 0.084448
vt 0.687134 0.540186
vt 0.685239 0.540186
vt 0.685239 0.537573
vt 0.687134 0.537573
vt 0.613641 0.087061
vt 0.604646 0.087061
vt 0.604646 0.084448
vt 0.613641 0.084448
vt 0.949528 0.540186
vt 0.949528 0.537573
vt 0.622635 0.087061
vt 0.622635 0.084448
vt 0.331722 0.540186
vt 0.325582 0.540186
vt 0.325582 0.537573
vt 0.331722 0.537573
vt 0.631630 0.087061
vt 0.631630 0.084448
vt 0.680716 0.540186
vt 0.670586 0.540186
vt 0.670586 0.537573
vt 0.680716 0.537573
vt 0.640625 0.087061
vt 0.640625 0.084448
vt 0.048043 0.305811
vt 0.044915 0.305811
vt 0.044915 0.303198
vt 0.048043 0.303198
vt 0.660538 0.540186
vt 0.660538 0.537573
vt 0.649620 0.087061
vt 0.649620 0.084448
vt 0.111335 0.305811
vt 0.108207 0.305811
vt 0.108207 0.303198
vt 0.111335 0.303198
vt 0.157432 0.303809
vt 0.142630 0.305602
vt 0.143974 0.041881
vt 0.158027 0.041912
vt 0.186031 0.041930
vt 0.186035 0.039853
vt 0.200077 0.039954
vt 0.200083 0.041916
vt 0.160699 0.033353
vt 0.158026 0.039836
vt 0.143983 0.039918
vt 0.149349 0.033324
vt 0.164027 0.028474
vt 0.156010 0.028456
vt 0.167895 0.025412
vt 0.163749 0.025405
vt 0.176185 0.025417
vt 0.180049 0.028485
vt 0.172038 0.028483
vt 0.172040 0.025416
vt 0.183370 0.033367
vt 0.172035 0.033366
vt 0.172031 0.039733
vt 0.172029 0.041924
vt 0.186497 0.303772
vt 0.172001 0.303071
vt 0.201121 0.305530
vt 0.172040 0.024370
vt 0.180330 0.025416
vt 0.188065 0.028477
vt 0.194720 0.033354
vt 0.685239 0.928564
vt 0.687134 0.928564
vt 0.687134 0.931177
vt 0.685239 0.931177
vt 0.604646 0.475439
vt 0.613641 0.475439
vt 0.613641 0.478052
vt 0.604646 0.478052
vt 0.949528 0.928564
vt 0.955668 0.928564
vt 0.955668 0.931177
vt 0.949528 0.931177
vt 0.622635 0.475439
vt 0.622635 0.478052
vt 0.331722 0.928564
vt 0.594116 0.928564
vt 0.594116 0.931177
vt 0.331722 0.931177
vt 0.631630 0.475439
vt 0.631630 0.478052
vt 0.670586 0.928564
vt 0.680716 0.928564
vt 0.680716 0.931177
vt 0.670586 0.931177
vt 0.640625 0.475439
vt 0.640625 0.478052
vt 0.044915 0.694189
vt 0.048043 0.694189
vt 0.048043 0.696802
vt 0.044915 0.696802
vt 0.660538 0.928564
vt 0.660538 0.931177
vt 0.649620 0.475439
vt 0.649620 0.478052
vt 0.108207 0.694189
vt 0.111335 0.694189
vt 0.111335 0.696802
vt 0.108207 0.696802
vt 0.650561 0.928564
vt 0.650561 0.931177
vt 0.658615 0.475439
vt 0.658615 0.478052
vt 0.676604 0.475439
vt 0.678332 0.475439
vt 0.678332 0.478052
vt 0.676604 0.478052
vt 0.640625 0.928564
vt 0.640625 0.931177
vt 0.157253 0.696228
vt 0.157720 0.958070
vt 0.143668 0.958084
vt 0.142629 0.694470
vt 0.185725 0.958088
vt 0.199777 0.958119
vt 0.199769 0.960082
vt 0.185725 0.960164
vt 0.160382 0.966633
vt 0.149032 0.966646
vt 0.143675 0.960046
vt 0.157717 0.960147
vt 0.163703 0.971515
vt 0.155686 0.971523
vt 0.167567 0.974583
vt 0.163421 0.974584
vt 0.175856 0.974588
vt 0.171712 0.974584
vt 0.171714 0.971517
vt 0.179725 0.971526
vt 0.171717 0.966634
vt 0.183052 0.966647
vt 0.171721 0.960267
vt 0.171722 0.958076
vt 0.186318 0.696191
vt 0.171749 0.696929
vt 0.201120 0.694398
vt 0.171711 0.975630
vt 0.180002 0.974595
vt 0.187741 0.971544
vt 0.194403 0.966676
vt 0.248421 0.305811
vt 0.257000 0.305811
vt 0.257000 0.694189
vt 0.248421 0.694189
vt 0.231178 0.305811
vt 0.239921 0.305811
vt 0.239921 0.694189
vt 0.231178 0.694189
vt 0.265625 0.305811
vt 0.274250 0.305811
vt 0.274250 0.694189
vt 0.265625 0.694189
vt 0.955668 0.540186
vt 0.291329 0.305811
vt 0.300072 0.305811
vt 0.300072 0.694189
vt 0.291329 0.694189
vt 0.282829 0.305811
vt 0.282829 0.694189
vt 0.950693 0.087061
vt 0.950693 0.475439
vt 0.944552 0.475439
vt 0.596011 0.928564
vt 0.598029 0.928564
vt 0.683221 0.540186
vt 0.683221 0.928564
vt 0.600534 0.540186
vt 0.610664 0.540186
vt 0.610664 0.928564
vt 0.600534 0.928564
vt 0.620712 0.540186
vt 0.620712 0.928564
vt 0.630689 0.540186
vt 0.630689 0.928564
vt 0.667609 0.087061
vt 0.676604 0.087061
vt 0.667609 0.475439
vt 0.640625 0.540186
vt 0.602918 0.087061
vt 0.602918 0.475439
vt 0.658615 0.087061
vt 0.650561 0.540186
vt 0.678332 0.087061
vt 0.087970 0.989254
vt 0.078125 0.990591
vt 0.078125 0.987360
vt 0.087043 0.986186
vt 0.068280 0.989254
vt 0.069207 0.986186
vt 0.097144 0.985333
vt 0.095353 0.982744
vt 0.059106 0.985333
vt 0.060897 0.982744
vt 0.051227 0.979096
vt 0.053761 0.977268
vt 0.045182 0.970967
vt 0.048285 0.970132
vt 0.105023 0.979096
vt 0.102489 0.977268
vt 0.111068 0.970967
vt 0.107965 0.970132
vt 0.110002 0.968700
vt 0.106999 0.968700
vt 0.110002 0.966682
vt 0.106999 0.966682
vt 0.111335 0.965336
vt 0.108207 0.965337
vt 0.046248 0.968700
vt 0.049251 0.968700
vt 0.046248 0.966682
vt 0.049251 0.966682
vt 0.044915 0.965337
vt 0.048043 0.965337
vt 0.111335 0.702942
vt 0.108207 0.702942
vt 0.044915 0.702942
vt 0.048043 0.702942
vt 0.950693 0.478052
vt 0.944552 0.478052
vt 0.596011 0.931177
vt 0.336698 0.475439
vt 0.599092 0.475439
vt 0.599092 0.478052
vt 0.336698 0.478052
vt 0.598029 0.931177
vt 0.600900 0.475439
vt 0.600900 0.478052
vt 0.683221 0.931177
vt 0.610664 0.931177
vt 0.600534 0.931177
vt 0.680350 0.475439
vt 0.682158 0.475439
vt 0.682158 0.478052
vt 0.680350 0.478052
vt 0.620712 0.931177
vt 0.630689 0.931177
vt 0.602918 0.478052
vt 0.667609 0.478052
vt 0.087970 0.010746
vt 0.087043 0.013814
vt 0.078125 0.012640
vt 0.078125 0.009409
vt 0.069207 0.013814
vt 0.068280 0.010746
vt 0.097145 0.014667
vt 0.095353 0.017256
vt 0.060897 0.017256
vt 0.059106 0.014667
vt 0.053761 0.022732
vt 0.051227 0.020904
vt 0.048285 0.029868
vt 0.045182 0.029033
vt 0.105023 0.020904
vt 0.102489 0.022732
vt 0.111068 0.029033
vt 0.107965 0.029868
vt 0.110002 0.031300
vt 0.106999 0.031300
vt 0.110002 0.033318
vt 0.106999 0.033318
vt 0.111335 0.034663
vt 0.108207 0.034663
vt 0.049251 0.031300
vt 0.046248 0.031300
vt 0.049251 0.033318
vt 0.046248 0.033318
vt 0.048043 0.034663
vt 0.044915 0.034663
vt 0.111335 0.297058
vt 0.108207 0.297058
vt 0.044915 0.297058
vt 0.048043 0.297058
vt 0.600900 0.087061
vt 0.599092 0.087061
vt 0.599092 0.084448
vt 0.600900 0.084448
vt 0.683221 0.537573
vt 0.600534 0.537573
vt 0.610664 0.537573
vt 0.680350 0.087061
vt 0.680350 0.084448
vt 0.620712 0.537573
vt 0.678332 0.084448
vt 0.630689 0.537573
vt 0.602918 0.084448
vt 0.667609 0.084448
vt 0.676604 0.084448
vt 0.640625 0.537573
vt 0.658615 0.084448
vt 0.650561 0.537573
vt 0.330557 0.475439
vt 0.330557 0.478052
vt 0.955668 0.537573
vt 0.201296 0.043257
vt 0.202355 0.305679
vt 0.325582 0.928564
vt 0.325582 0.931177
vt 0.950693 0.084448
vt 0.141395 0.305750
vt 0.142759 0.043220
vt 0.202355 0.694250
vt 0.141395 0.694321
vt 0.142455 0.956743
vt 0.200992 0.956780
s 1
f 17/1/1 14/2/2 171/3/2 172/4/1
f 192/5/2 28/6/2 185/7/2 198/8/2
f 14/2/3 13/9/3 166/10/3 171/3/3
f 200/11/4 30/12/4 183/13/4 206/14/4
f 12/15/5 15/16/5 170/17/5 169/18/5
f 25/19/6 26/20/7 182/21/7 181/22/6
f 191/23/4 12/15/4 169/18/4 197/24/4
f 24/25/8 25/19/6 181/22/6 180/26/8
f 199/27/2 10/28/2 167/29/2 205/30/2
f 23/31/9 24/25/8 180/26/8 179/32/9
f 9/33/10 8/34/11 164/35/11 165/36/10
f 22/37/12 23/31/9 179/32/9 178/38/12
f 28/39/12 11/40/12 168/41/12 185/42/12
f 8/34/11 7/43/13 163/44/13 164/35/11
f 21/45/14 22/37/12 178/38/12 177/46/14
f 10/47/12 27/48/12 184/49/12 167/50/12
f 56/51/15 45/52/15 32/53/15 57/54/15
f 46/55/15 59/56/15 34/57/15 31/58/15
f 55/59/15 58/60/15 33/61/15 42/62/15
f 54/63/15 55/59/15 42/62/15 41/64/15
f 53/65/15 54/63/15 41/64/15 40/66/15
f 60/67/15 61/68/15 51/69/15 52/70/15
f 61/68/15 35/71/15 50/72/15 51/69/15
f 35/71/15 59/56/15 49/73/15 50/72/15
f 57/54/15 58/60/15 49/73/15 47/74/15
f 43/75/15 48/76/15 47/74/15 46/55/15
f 44/77/15 43/75/15 46/55/15 31/58/15
f 32/53/15 33/61/15 58/60/15 57/54/15
f 51/69/15 50/72/15 55/59/15 54/63/15
f 48/76/15 56/51/15 57/54/15 47/74/15
f 39/78/15 52/70/15 53/65/15 40/66/15
f 38/79/15 37/80/15 61/68/15 60/67/15
f 39/78/15 38/79/15 60/67/15 52/70/15
f 50/72/15 49/73/15 58/60/15 55/59/15
f 52/70/15 51/69/15 54/63/15 53/65/15
f 47/74/15 49/73/15 59/56/15 46/55/15
f 36/81/15 34/57/15 59/56/15 35/71/15
f 37/80/15 36/81/15 35/71/15 61/68/15
f 76/82/5 73/83/5 135/84/5 136/85/5
f 87/86/7 86/87/6 147/88/6 148/89/7
f 193/90/4 72/91/4 134/92/4 195/93/4
f 86/87/6 85/94/8 146/95/8 147/88/6
f 201/96/2 74/97/2 132/98/2 203/99/2
f 85/94/8 84/100/9 145/101/9 146/95/8
f 69/102/11 70/103/10 131/104/10 130/105/11
f 84/100/9 83/106/12 144/107/12 145/101/9
f 72/108/12 89/109/12 151/110/12 134/111/12
f 68/112/13 69/102/11 130/105/11 129/113/13
f 83/106/12 82/114/14 143/115/14 144/107/12
f 88/116/12 71/117/12 133/118/12 150/119/12
f 67/120/16 68/112/13 129/113/13 128/121/16
f 82/114/14 81/122/17 142/123/17 143/115/14
f 79/124/18 95/125/18 155/126/18 141/127/18
f 66/128/19 67/120/16 128/121/16 127/129/19
f 117/130/20 118/131/20 93/132/20 106/133/20
f 107/134/20 92/135/20 95/136/20 120/137/20
f 116/138/20 103/139/20 94/140/20 119/141/20
f 115/142/20 102/143/20 103/139/20 116/138/20
f 114/144/20 101/145/20 102/143/20 115/142/20
f 121/146/20 113/147/20 112/148/20 122/149/20
f 122/149/20 112/148/20 111/150/20 96/151/20
f 96/151/20 111/150/20 110/152/20 120/137/20
f 118/131/20 108/153/20 110/152/20 119/141/20
f 104/154/20 107/134/20 108/153/20 109/155/20
f 105/156/20 92/135/20 107/134/20 104/154/20
f 93/132/20 118/131/20 119/141/20 94/140/20
f 112/148/20 115/142/20 116/138/20 111/150/20
f 109/155/20 108/153/20 118/131/20 117/130/20
f 100/157/20 101/145/20 114/144/20 113/147/20
f 99/158/20 121/146/20 122/149/20 98/159/20
f 100/157/20 113/147/20 121/146/20 99/158/20
f 111/150/20 116/138/20 119/141/20 110/152/20
f 113/147/20 114/144/20 115/142/20 112/148/20
f 108/153/20 107/134/20 120/137/20 110/152/20
f 97/160/20 96/151/20 120/137/20 95/136/20
f 98/159/20 122/149/20 96/151/20 97/160/20
f 37/161/21 38/162/22 99/163/22 98/164/21
f 34/165/23 36/166/24 97/167/24 95/168/23
f 24/25/8 23/31/9 84/100/9 85/94/8
f 199/27/2 13/9/2 74/97/2 201/96/2
f 39/169/19 40/170/25 101/171/25 100/172/19
f 45/52/26 56/51/27 117/130/27 106/133/26
f 25/19/6 24/25/8 85/94/8 86/87/6
f 191/23/4 11/173/4 72/91/4 193/90/4
f 42/174/28 33/175/29 94/176/29 103/177/28
f 26/20/7 25/19/6 86/87/6 87/86/7
f 15/16/5 12/15/5 73/83/5 76/82/5
f 40/170/25 41/178/30 102/179/30 101/171/25
f 200/11/4 27/180/4 88/181/4 202/182/4
f 13/9/3 14/2/3 75/183/3 74/97/3
f 41/178/30 42/174/28 103/177/28 102/179/30
f 14/2/2 17/1/1 78/184/1 75/183/2
f 16/185/31 15/16/4 76/82/4 77/186/31
f 43/75/32 44/77/33 105/156/33 104/154/32
f 1/187/34 2/188/35 63/189/35 62/190/34
f 9/33/36 16/185/31 77/186/31 70/103/36
f 48/76/12 43/75/32 104/154/32 109/155/12
f 2/188/35 3/191/37 64/192/37 63/189/35
f 17/1/1 1/187/38 62/190/38 78/184/1
f 3/191/37 4/193/39 65/194/39 64/192/37
f 19/195/40 18/196/41 79/124/41 80/197/40
f 4/193/39 5/198/19 66/128/19 65/194/39
f 33/199/42 26/20/42 87/86/42 94/200/42
f 20/201/17 19/195/40 80/197/40 81/122/17
f 5/198/19 6/202/16 67/120/16 66/128/19
f 18/196/18 34/203/18 95/125/18 79/124/18
f 56/51/27 48/76/12 109/155/12 117/130/27
f 21/45/14 20/201/17 81/122/17 82/114/14
f 6/202/16 7/43/13 68/112/13 67/120/16
f 27/48/12 10/47/12 71/117/12 88/116/12
f 22/37/12 21/45/14 82/114/14 83/106/12
f 7/43/13 8/34/11 69/102/11 68/112/13
f 36/166/24 37/161/21 98/164/21 97/167/24
f 11/40/12 28/39/12 89/109/12 72/108/12
f 23/31/9 22/37/12 83/106/12 84/100/9
f 8/34/11 9/33/10 70/103/10 69/102/11
f 126/204/20 127/205/20 144/206/20 143/207/20
f 127/205/20 128/208/20 145/209/20 144/206/20
f 125/210/20 126/204/20 143/207/20 142/211/20
f 128/208/20 129/212/20 146/213/20 145/209/20
f 129/212/20 130/214/20 147/215/20 146/213/20
f 130/214/20 131/216/20 148/217/20 147/215/20
f 123/218/20 125/210/20 142/211/20 140/219/20
f 124/220/20 123/218/20 140/219/20 141/221/20
f 138/222/20 124/220/20 141/221/20 155/223/20
f 137/224/20 138/222/20 155/223/20 154/225/20
f 132/226/20 137/224/20 154/225/20 149/227/20
f 131/216/20 139/228/20 156/229/20 148/217/20
f 139/228/20 136/230/20 153/231/20 156/229/20
f 136/230/20 135/232/20 152/233/20 153/231/20
f 203/234/20 132/226/20 149/227/20 204/235/20
f 195/236/20 134/111/20 151/110/20 196/237/20
f 202/182/4 88/181/4 150/238/4 204/239/4
f 74/97/3 75/183/3 137/240/3 132/98/3
f 194/241/2 90/242/2 152/243/2 196/244/2
f 75/183/2 78/184/1 138/245/1 137/240/2
f 90/242/43 93/246/43 153/247/43 152/243/43
f 77/186/31 76/82/4 136/85/4 139/248/31
f 62/190/34 63/189/35 123/249/35 124/250/34
f 92/251/44 91/252/44 149/253/44 154/254/44
f 70/103/36 77/186/31 139/248/31 131/104/45
f 63/189/35 64/192/37 125/255/37 123/249/35
f 95/125/4 92/251/4 154/254/4 155/126/4
f 78/184/1 62/190/38 124/250/46 138/245/1
f 64/192/37 65/194/39 126/256/39 125/255/37
f 93/246/2 94/200/2 156/257/2 153/247/2
f 80/197/40 79/124/41 141/127/41 140/258/40
f 65/194/39 66/128/19 127/129/19 126/256/39
f 94/200/42 87/86/42 148/89/42 156/257/42
f 81/122/17 80/197/40 140/258/40 142/123/17
f 160/259/15 177/260/15 178/261/15 161/262/15
f 161/262/15 178/261/15 179/263/15 162/264/15
f 159/265/15 176/266/15 177/260/15 160/259/15
f 162/264/15 179/263/15 180/267/15 163/268/15
f 163/268/15 180/267/15 181/269/15 164/270/15
f 164/270/15 181/269/15 182/271/15 165/272/15
f 157/273/15 174/274/15 176/266/15 159/265/15
f 158/275/15 175/276/15 174/274/15 157/273/15
f 172/277/15 189/278/15 175/276/15 158/275/15
f 171/279/15 188/280/15 189/278/15 172/277/15
f 166/281/15 183/282/15 188/280/15 171/279/15
f 165/272/15 182/271/15 190/283/15 173/284/15
f 173/284/15 190/283/15 187/285/15 170/286/15
f 170/286/15 187/285/15 186/287/15 169/288/15
f 205/289/15 206/290/15 183/282/15 166/281/15
f 197/291/15 198/292/15 185/42/15 168/41/15
f 32/293/43 29/294/43 186/295/43 187/296/43
f 15/16/4 16/185/31 173/297/31 170/17/4
f 2/188/35 1/187/34 158/298/34 157/299/35
f 30/12/44 31/300/44 188/301/44 183/13/44
f 16/185/31 9/33/36 165/36/36 173/297/31
f 3/191/37 2/188/35 157/299/35 159/302/37
f 31/300/4 34/203/4 189/303/4 188/301/4
f 1/187/38 17/1/1 172/4/1 158/298/46
f 4/193/39 3/191/37 159/302/37 160/304/39
f 33/199/2 32/293/2 187/296/2 190/305/2
f 18/196/41 19/195/40 174/306/40 175/307/41
f 5/198/19 4/193/39 160/304/39 161/308/19
f 26/20/42 33/199/42 190/305/42 182/21/42
f 19/195/40 20/201/17 176/309/17 174/306/40
f 6/202/16 5/198/19 161/308/19 162/310/16
f 34/203/18 18/196/18 175/307/18 189/303/18
f 20/201/17 21/45/14 177/46/14 176/309/17
f 7/43/13 6/202/16 162/310/16 163/44/13
f 169/288/15 186/287/15 198/292/15 197/291/15
f 89/311/2 194/241/2 196/244/2 151/312/2
f 135/232/20 195/236/20 196/237/20 152/233/20
f 28/6/2 192/5/2 194/241/2 89/311/2
f 12/15/4 191/23/4 193/90/4 73/83/4
f 73/83/4 193/90/4 195/93/4 135/84/4
f 11/173/4 191/23/4 197/24/4 168/313/4
f 29/294/2 192/5/2 198/8/2 186/295/2
f 167/50/15 184/49/15 206/290/15 205/289/15
f 91/252/4 202/182/4 204/239/4 149/253/4
f 133/118/20 203/234/20 204/235/20 150/119/20
f 44/77/15 31/58/15 30/314/15 200/315/15
f 10/28/2 199/27/2 201/96/2 71/316/2
f 71/316/2 201/96/2 203/99/2 133/317/2
f 13/9/2 199/27/2 205/30/2 166/10/2
f 27/180/4 200/11/4 206/14/4 184/318/4
f 32/53/15 45/52/15 192/319/15 29/320/15
f 44/77/33 200/315/47 202/321/47 105/156/33
f 192/319/48 45/52/26 106/133/26 194/322/48
f 106/133/20 93/132/20 90/323/20 194/322/20
f 92/135/20 105/156/20 202/321/20 91/324/20
f 38/162/22 39/169/19 100/172/19 99/163/22
o brownbook
v -0.042362 0.027462 0.144992
v -0.047460 0.031410 0.146474
v -0.051371 0.036555 0.147612
v -0.053830 0.042547 0.148326
v -0.054669 0.048977 0.148570
v -0.053830 0.055407 0.148326
v -0.051371 0.061398 0.147612
v -0.047460 0.066543 0.146474
v -0.042362 0.070491 0.144992
v 0.129576 0.027287 0.095006
v 0.129576 0.070666 0.095006
v -0.038831 0.070666 0.143966
v -0.038831 0.027287 0.143966
v -0.039674 0.028158 0.144211
v -0.039674 0.069795 0.144211
v -0.040940 0.069795 0.144579
v -0.040940 0.028158 0.144579
v -0.041838 0.029489 0.144840
v -0.046313 0.033065 0.146141
v -0.049747 0.037725 0.147139
v -0.051906 0.043153 0.147767
v -0.052642 0.048977 0.147981
v -0.051906 0.054801 0.147767
v -0.049747 0.060228 0.147139
v -0.046313 0.064889 0.146141
v -0.041838 0.068465 0.144840
v 0.129576 0.029330 0.095006
v 0.129576 0.068623 0.095006
v -0.038831 0.068623 0.143966
v -0.038831 0.029330 0.143966
v -0.039674 0.030119 0.144211
v -0.039674 0.067834 0.144211
v -0.040940 0.067834 0.144579
v -0.040940 0.030119 0.144579
v -0.045205 0.041342 0.145819
v -0.045205 0.033708 0.145819
v -0.048363 0.038180 0.146737
v -0.050347 0.043388 0.147314
v -0.051024 0.048977 0.147511
v -0.050347 0.054565 0.147314
v -0.048363 0.059773 0.146737
v -0.045205 0.064245 0.145819
v 0.123412 0.039551 0.096798
v 0.125544 0.030125 0.096178
v 0.125544 0.067829 0.096178
v -0.039674 0.039548 0.144211
v -0.039674 0.048977 0.144211
v 0.122534 0.048977 0.097053
v -0.041090 0.048977 0.144623
v -0.045205 0.048977 0.145819
v -0.048363 0.048977 0.146737
v -0.050347 0.048977 0.147314
v -0.050347 0.051771 0.147314
v -0.048363 0.054375 0.146737
v -0.045205 0.056611 0.145819
v 0.123412 0.058403 0.096798
v -0.039674 0.058406 0.144211
v -0.041015 0.058406 0.144601
v -0.041015 0.039548 0.144601
v -0.050347 0.046182 0.147314
v -0.048363 0.043579 0.146737
v -0.113172 0.027462 -0.098571
v -0.118269 0.031410 -0.097089
v -0.122181 0.036555 -0.095952
v -0.124640 0.042547 -0.095237
v -0.125479 0.048977 -0.094993
v -0.124640 0.055407 -0.095237
v -0.122181 0.061398 -0.095952
v -0.118269 0.066543 -0.097089
v -0.113172 0.070491 -0.098571
v 0.058766 0.027287 -0.148558
v 0.058766 0.070666 -0.148558
v -0.109640 0.070666 -0.099598
v -0.109640 0.027287 -0.099598
v -0.110484 0.028158 -0.099353
v -0.110484 0.069795 -0.099353
v -0.111750 0.069795 -0.098985
v -0.111750 0.028158 -0.098985
v -0.112648 0.029489 -0.098723
v -0.117123 0.033065 -0.097422
v -0.120557 0.037725 -0.096424
v -0.122716 0.043153 -0.095796
v -0.123452 0.048977 -0.095582
v -0.122716 0.054801 -0.095796
v -0.120557 0.060228 -0.096424
v -0.117123 0.064889 -0.097422
v -0.112648 0.068465 -0.098723
v 0.058766 0.029330 -0.148558
v 0.058766 0.068623 -0.148558
v -0.109640 0.068623 -0.099598
v -0.109640 0.029330 -0.099598
v -0.110484 0.030119 -0.099353
v -0.110484 0.067834 -0.099353
v -0.111750 0.067834 -0.098985
v -0.111750 0.030119 -0.098985
v -0.116015 0.041342 -0.097745
v -0.116015 0.033708 -0.097745
v -0.119172 0.038180 -0.096827
v -0.121157 0.043388 -0.096250
v -0.121834 0.048977 -0.096053
v -0.121157 0.054565 -0.096250
v -0.119172 0.059773 -0.096827
v -0.116015 0.064245 -0.097745
v 0.052602 0.039551 -0.146766
v 0.054734 0.030125 -0.147385
v 0.054734 0.067829 -0.147385
v -0.110484 0.039548 -0.099353
v -0.110484 0.048977 -0.099353
v 0.051724 0.048977 -0.146510
v -0.111900 0.048977 -0.098941
v -0.116015 0.048977 -0.097745
v -0.119172 0.048977 -0.096827
v -0.121157 0.048977 -0.096250
v -0.121157 0.051771 -0.096250
v -0.119172 0.054375 -0.096827
v -0.116015 0.056611 -0.097745
v 0.052602 0.058403 -0.146766
v -0.110484 0.058406 -0.099353
v -0.111825 0.058406 -0.098963
v -0.111825 0.039548 -0.098963
v -0.121157 0.046182 -0.096250
v -0.119172 0.043578 -0.096827
v -0.118746 0.031410 -0.098728
v -0.113648 0.027462 -0.100210
v -0.122657 0.036555 -0.097591
v -0.125116 0.042547 -0.096876
v -0.125955 0.048977 -0.096632
v -0.125116 0.055407 -0.096876
v -0.122657 0.061398 -0.097591
v -0.118746 0.066543 -0.098728
v -0.113648 0.070491 -0.100210
v -0.110117 0.027287 -0.101236
v 0.058289 0.027287 -0.150196
v 0.058289 0.070666 -0.150196
v -0.110117 0.070666 -0.101236
v -0.110961 0.069795 -0.100991
v -0.110961 0.028158 -0.100991
v -0.112226 0.028158 -0.100623
v -0.112226 0.069795 -0.100623
v -0.117600 0.033065 -0.099061
v -0.113124 0.029489 -0.100362
v -0.121034 0.037725 -0.098063
v -0.123192 0.043153 -0.097435
v -0.123929 0.048977 -0.097221
v -0.123192 0.054801 -0.097435
v -0.121034 0.060228 -0.098063
v -0.117600 0.064889 -0.099061
v -0.113124 0.068465 -0.100362
v -0.110117 0.029330 -0.101236
v 0.058289 0.029330 -0.150196
v 0.058289 0.068623 -0.150196
v -0.110117 0.068623 -0.101236
v -0.110961 0.067834 -0.100991
v -0.110961 0.030119 -0.100991
v -0.112226 0.030119 -0.100623
v -0.112226 0.067834 -0.100623
v -0.046983 0.031410 0.148113
v -0.041885 0.027462 0.146631
v -0.050895 0.036555 0.149250
v -0.053354 0.042547 0.149965
v -0.054192 0.048977 0.150209
v -0.053354 0.055407 0.149965
v -0.050895 0.061398 0.149250
v -0.046983 0.066543 0.148113
v -0.041885 0.070491 0.146631
v -0.038354 0.027287 0.145604
v 0.130052 0.027287 0.096645
v 0.130052 0.070666 0.096645
v -0.038354 0.070666 0.145604
v -0.039198 0.069795 0.145850
v -0.039198 0.028158 0.145850
v -0.040464 0.028158 0.146218
v -0.040464 0.069795 0.146218
v -0.045837 0.033065 0.147780
v -0.041362 0.029489 0.146479
v -0.049271 0.037725 0.148778
v -0.051430 0.043153 0.149406
v -0.052166 0.048977 0.149620
v -0.051430 0.054801 0.149406
v -0.049271 0.060228 0.148778
v -0.045837 0.064889 0.147780
v -0.041362 0.068465 0.146479
v -0.038354 0.029330 0.145604
v 0.130052 0.029330 0.096645
v 0.130052 0.068623 0.096645
v -0.038354 0.068623 0.145604
v -0.039198 0.067834 0.145850
v -0.039198 0.030119 0.145850
v -0.040464 0.030119 0.146218
v -0.040464 0.067834 0.146218
v 0.125725 0.070666 0.096125
v 0.125725 0.068623 0.096125
v 0.054915 0.070666 -0.147438
v 0.054915 0.068623 -0.147438
v 0.054439 0.070666 -0.149077
v 0.054439 0.068623 -0.149077
v 0.126201 0.070666 0.097764
v 0.126201 0.068623 0.097764
v 0.125725 0.027287 0.096125
v 0.125725 0.029330 0.096125
v 0.054915 0.027287 -0.147438
v 0.054915 0.029330 -0.147438
v 0.054439 0.027287 -0.149077
v 0.054439 0.029330 -0.149077
v 0.126201 0.027287 0.097764
v 0.126201 0.029330 0.097764
vn 0.2093 -0.9760 -0.0608
vn -0.0000 -1.0000 -0.0000
vn -0.6760 -0.7102 0.1965
vn -0.0000 1.0000 -0.0000
vn -0.6760 0.7102 0.1965
vn 0.6790 -0.7071 -0.1974
vn 0.5846 -0.7934 -0.1699
vn 0.8316 -0.5000 -0.2418
vn 0.9275 -0.2588 -0.2697
vn -0.5730 0.8024 0.1666
vn -0.6687 0.7177 0.1944
vn 0.9602 -0.0000 -0.2792
vn -0.8252 0.5114 0.2399
vn 0.9275 0.2588 -0.2697
vn 0.2792 -0.0000 0.9602
vn -0.9256 0.2662 0.2691
vn 0.8316 0.5000 -0.2418
vn -0.5367 0.8292 0.1560
vn -0.9602 -0.0000 0.2792
vn -0.2792 -0.0000 -0.9602
vn -0.8399 -0.4846 0.2442
vn -0.9300 -0.2490 0.2704
vn -0.6035 -0.7778 0.1755
vn -0.6943 -0.6908 0.2018
vn -0.9300 0.2490 0.2704
vn 0.9344 -0.2302 -0.2717
vn 0.9474 -0.1633 -0.2754
vn -0.6943 0.6908 0.2018
vn -0.6035 0.7778 0.1755
vn -0.8399 0.4846 0.2442
vn 0.2093 0.9760 -0.0608
vn 0.9474 0.1633 -0.2754
vn 0.9345 0.2302 -0.2717
vn -0.5730 -0.8024 0.1666
vn -0.6687 -0.7177 0.1944
vn 0.4085 0.9050 -0.1188
vn -0.8252 -0.5114 0.2399
vn 0.4085 -0.9050 -0.1188
vn -0.9256 -0.2662 0.2691
vn 0.6790 0.7071 -0.1974
vn 0.5846 0.7934 -0.1699
vn -0.5367 -0.8292 0.1560
vn 0.6415 -0.7441 -0.1865
vn 0.6415 0.7441 -0.1865
vn 0.9342 0.2312 -0.2716
vn 0.9342 -0.2312 -0.2716
vt 0.598029 0.540186
vt 0.596011 0.540186
vt 0.596011 0.537573
vt 0.598029 0.537573
vt 0.336698 0.087061
vt 0.330557 0.087061
vt 0.330557 0.084448
vt 0.336698 0.084448
vt 0.594116 0.540186
vt 0.594116 0.537573
vt 0.944552 0.087061
vt 0.682158 0.087061
vt 0.682158 0.084448
vt 0.944552 0.084448
vt 0.687134 0.540186
vt 0.685239 0.540186
vt 0.685239 0.537573
vt 0.687134 0.537573
vt 0.613641 0.087061
vt 0.604646 0.087061
vt 0.604646 0.084448
vt 0.613641 0.084448
vt 0.949528 0.540186
vt 0.949528 0.537573
vt 0.622635 0.087061
vt 0.622635 0.084448
vt 0.331722 0.540186
vt 0.325582 0.540186
vt 0.325582 0.537573
vt 0.331722 0.537573
vt 0.631630 0.087061
vt 0.631630 0.084448
vt 0.680716 0.540186
vt 0.670586 0.540186
vt 0.670586 0.537573
vt 0.680716 0.537573
vt 0.640625 0.087061
vt 0.640625 0.084448
vt 0.048043 0.305811
vt 0.044915 0.305811
vt 0.044915 0.303198
vt 0.048043 0.303198
vt 0.660538 0.540186
vt 0.660538 0.537573
vt 0.649620 0.087061
vt 0.649620 0.084448
vt 0.111335 0.305811
vt 0.108207 0.305811
vt 0.108207 0.303198
vt 0.111335 0.303198
vt 0.157432 0.303809
vt 0.142630 0.305602
vt 0.143974 0.041881
vt 0.158027 0.041912
vt 0.186031 0.041930
vt 0.186035 0.039853
vt 0.200077 0.039954
vt 0.200083 0.041916
vt 0.160699 0.033353
vt 0.158026 0.039836
vt 0.143983 0.039918
vt 0.149349 0.033324
vt 0.164027 0.028474
vt 0.156010 0.028456
vt 0.167895 0.025412
vt 0.163749 0.025405
vt 0.176185 0.025417
vt 0.180049 0.028485
vt 0.172038 0.028483
vt 0.172040 0.025416
vt 0.183370 0.033367
vt 0.172035 0.033366
vt 0.172031 0.039733
vt 0.172029 0.041924
vt 0.186497 0.303772
vt 0.172001 0.303071
vt 0.201121 0.305530
vt 0.172040 0.024370
vt 0.180330 0.025416
vt 0.188065 0.028477
vt 0.194720 0.033354
vt 0.685239 0.928564
vt 0.687134 0.928564
vt 0.687134 0.931177
vt 0.685239 0.931177
vt 0.604646 0.475439
vt 0.613641 0.475439
vt 0.613641 0.478052
vt 0.604646 0.478052
vt 0.949528 0.928564
vt 0.955668 0.928564
vt 0.955668 0.931177
vt 0.949528 0.931177
vt 0.622635 0.475439
vt 0.622635 0.478052
vt 0.331722 0.928564
vt 0.594116 0.928564
vt 0.594116 0.931177
vt 0.331722 0.931177
vt 0.631630 0.475439
vt 0.631630 0.478052
vt 0.670586 0.928564
vt 0.680716 0.928564
vt 0.680716 0.931177
vt 0.670586 0.931177
vt 0.640625 0.475439
vt 0.640625 0.478052
vt 0.044915 0.694189
vt 0.048043 0.694189
vt 0.048043 0.696802
vt 0.044915 0.696802
vt 0.660538 0.928564
vt 0.660538 0.931177
vt 0.649620 0.475439
vt 0.649620 0.478052
vt 0.108207 0.694189
vt 0.111335 0.694189
vt 0.111335 0.696802
vt 0.108207 0.696802
vt 0.650561 0.928564
vt 0.650561 0.931177
vt 0.658615 0.475439
vt 0.658615 0.478052
vt 0.676604 0.475439
vt 0.678332 0.475439
vt 0.678332 0.478052
vt 0.676604 0.478052
vt 0.640625 0.928564
vt 0.640625 0.931177
vt 0.157253 0.696228
vt 0.157720 0.958070
vt 0.143668 0.958084
vt 0.142629 0.694470
vt 0.185725 0.958088
vt 0.199777 0.958119
vt 0.199769 0.960082
vt 0.185725 0.960164
vt 0.160382 0.966633
vt 0.149032 0.966646
vt 0.143675 0.960046
vt 0.157717 0.960147
vt 0.163703 0.971515
vt 0.155686 0.971523
vt 0.167567 0.974583
vt 0.163421 0.974584
vt 0.175856 0.974588
vt 0.171712 0.974584
vt 0.171714 0.971517
vt 0.179725 0.971526
vt 0.171717 0.966634
vt 0.183052 0.966647
vt 0.171721 0.960267
vt 0.171722 0.958076
vt 0.186318 0.696191
vt 0.171749 0.696929
vt 0.201120 0.694398
vt 0.171711 0.975630
vt 0.180002 0.974595
vt 0.187741 0.971544
vt 0.194403 0.966676
vt 0.248421 0.305811
vt 0.257000 0.305811
vt 0.257000 0.694189
vt 0.248421 0.694189
vt 0.231178 0.305811
vt 0.239921 0.305811
vt 0.239921 0.694189
vt 0.231178 0.694189
vt 0.265625 0.305811
vt 0.274250 0.305811
vt 0.274250 0.694189
vt 0.265625 0.694189
vt 0.955668 0.540186
vt 0.291329 0.305811
vt 0.300072 0.305811
vt 0.300072 0.694189
vt 0.291329 0.694189
vt 0.282829 0.305811
vt 0.282829 0.694189
vt 0.950693 0.087061
vt 0.950693 0.475439
vt 0.944552 0.475439
vt 0.596011 0.928564
vt 0.598029 0.928564
vt 0.683221 0.540186
vt 0.683221 0.928564
vt 0.600534 0.540186
vt 0.610664 0.540186
vt 0.610664 0.928564
vt 0.600534 0.928564
vt 0.620712 0.540186
vt 0.620712 0.928564
vt 0.630689 0.540186
vt 0.630689 0.928564
vt 0.667609 0.087061
vt 0.676604 0.087061
vt 0.667609 0.475439
vt 0.640625 0.540186
vt 0.602918 0.087061
vt 0.602918 0.475439
vt 0.658615 0.087061
vt 0.650561 0.540186
vt 0.678332 0.087061
vt 0.087970 0.989254
vt 0.078125 0.990591
vt 0.078125 0.987360
vt 0.087043 0.986186
vt 0.068280 0.989254
vt 0.069207 0.986186
vt 0.097144 0.985333
vt 0.095353 0.982744
vt 0.059106 0.985333
vt 0.060897 0.982744
vt 0.051227 0.979096
vt 0.053761 0.977268
vt 0.045182 0.970967
vt 0.048285 0.970132
vt 0.105023 0.979096
vt 0.102489 0.977268
vt 0.111068 0.970967
vt 0.107965 0.970132
vt 0.110002 0.968700
vt 0.106999 0.968700
vt 0.110002 0.966682
vt 0.106999 0.966682
vt 0.111335 0.965336
vt 0.108207 0.965337
vt 0.046248 0.968700
vt 0.049251 0.968700
vt 0.046248 0.966682
vt 0.049251 0.966682
vt 0.044915 0.965337
vt 0.048043 0.965337
vt 0.111335 0.702942
vt 0.108207 0.702942
vt 0.044915 0.702942
vt 0.048043 0.702942
vt 0.950693 0.478052
vt 0.944552 0.478052
vt 0.596011 0.931177
vt 0.336698 0.475439
vt 0.599092 0.475439
vt 0.599092 0.478052
vt 0.336698 0.478052
vt 0.598029 0.931177
vt 0.600900 0.475439
vt 0.600900 0.478052
vt 0.683221 0.931177
vt 0.610664 0.931177
vt 0.600534 0.931177
vt 0.680350 0.475439
vt 0.682158 0.475439
vt 0.682158 0.478052
vt 0.680350 0.478052
vt 0.620712 0.931177
vt 0.630689 0.931177
vt 0.602918 0.478052
vt 0.667609 0.478052
vt 0.087970 0.010746
vt 0.087043 0.013814
vt 0.078125 0.012640
vt 0.078125 0.009409
vt 0.069207 0.013814
vt 0.068280 0.010746
vt 0.097145 0.014667
vt 0.095353 0.017256
vt 0.060897 0.017256
vt 0.059106 0.014667
vt 0.053761 0.022732
vt 0.051227 0.020904
vt 0.048285 0.029868
vt 0.045182 0.029033
vt 0.105023 0.020904
vt 0.102489 0.022732
vt 0.111068 0.029033
vt 0.107965 0.029868
vt 0.110002 0.031300
vt 0.106999 0.031300
vt 0.110002 0.033318
vt 0.106999 0.033318
vt 0.111335 0.034663
vt 0.108207 0.034663
vt 0.049251 0.031300
vt 0.046248 0.031300
vt 0.049251 0.033318
vt 0.046248 0.033318
vt 0.048043 0.034663
vt 0.044915 0.034663
vt 0.111335 0.297058
vt 0.108207 0.297058
vt 0.044915 0.297058
vt 0.048043 0.297058
vt 0.600900 0.087061
vt 0.599092 0.087061
vt 0.599092 0.084448
vt 0.600900 0.084448
vt 0.683221 0.537573
vt 0.600534 0.537573
vt 0.610664 0.537573
vt 0.680350 0.087061
vt 0.680350 0.084448
vt 0.620712 0.537573
vt 0.678332 0.084448
vt 0.630689 0.537573
vt 0.602918 0.084448
vt 0.667609 0.084448
vt 0.676604 0.084448
vt 0.640625 0.537573
vt 0.658615 0.084448
vt 0.650561 0.537573
vt 0.330557 0.475439
vt 0.330557 0.478052
vt 0.955668 0.537573
vt 0.201296 0.043257
vt 0.202355 0.305679
vt 0.325582 0.928564
vt 0.325582 0.931177
vt 0.950693 0.084448
vt 0.141395 0.305750
vt 0.142759 0.043220
vt 0.202355 0.694250
vt 0.141395 0.694321
vt 0.142455 0.956743
vt 0.200992 0.956780
s 1
f 223/325/49 220/326/50 377/327/50 378/328/49
f 398/329/50 234/330/50 391/331/50 404/332/50
f 220/326/51 219/333/51 372/334/51 377/327/51
f 406/335/52 236/336/52 389/337/52 412/338/52
f 218/339/53 221/340/53 376/341/53 375/342/53
f 231/343/54 232/344/55 388/345/55 387/346/54
f 397/347/52 218/339/52 375/342/52 403/348/52
f 230/349/56 231/343/54 387/346/54 386/350/56
f 405/351/50 216/352/50 373/353/50 411/354/50
f 229/355/57 230/349/56 386/350/56 385/356/57
f 215/357/58 214/358/59 370/359/59 371/360/58
f 228/361/60 229/355/57 385/356/57 384/362/60
f 234/363/60 217/364/60 374/365/60 391/366/60
f 214/358/59 213/367/61 369/368/61 370/359/59
f 227/369/62 228/361/60 384/362/60 383/370/62
f 216/371/60 233/372/60 390/373/60 373/374/60
f 262/375/63 251/376/63 238/377/63 263/378/63
f 252/379/63 265/380/63 240/381/63 237/382/63
f 261/383/63 264/384/63 239/385/63 248/386/63
f 260/387/63 261/383/63 248/386/63 247/388/63
f 259/389/63 260/387/63 247/388/63 246/390/63
f 266/391/63 267/392/63 257/393/63 258/394/63
f 267/392/63 241/395/63 256/396/63 257/393/63
f 241/395/63 265/380/63 255/397/63 256/396/63
f 263/378/63 264/384/63 255/397/63 253/398/63
f 249/399/63 254/400/63 253/398/63 252/379/63
f 250/401/63 249/399/63 252/379/63 237/382/63
f 238/377/63 239/385/63 264/384/63 263/378/63
f 257/393/63 256/396/63 261/383/63 260/387/63
f 254/400/63 262/375/63 263/378/63 253/398/63
f 245/402/63 258/394/63 259/389/63 246/390/63
f 244/403/63 243/404/63 267/392/63 266/391/63
f 245/402/63 244/403/63 266/391/63 258/394/63
f 256/396/63 255/397/63 264/384/63 261/383/63
f 258/394/63 257/393/63 260/387/63 259/389/63
f 253/398/63 255/397/63 265/380/63 252/379/63
f 242/405/63 240/381/63 265/380/63 241/395/63
f 243/404/63 242/405/63 241/395/63 267/392/63
f 282/406/53 279/407/53 341/408/53 342/409/53
f 293/410/55 292/411/54 353/412/54 354/413/55
f 399/414/52 278/415/52 340/416/52 401/417/52
f 292/411/54 291/418/56 352/419/56 353/412/54
f 407/420/50 280/421/50 338/422/50 409/423/50
f 291/418/56 290/424/57 351/425/57 352/419/56
f 275/426/59 276/427/58 337/428/58 336/429/59
f 290/424/57 289/430/60 350/431/60 351/425/57
f 278/432/60 295/433/60 357/434/60 340/435/60
f 274/436/61 275/426/59 336/429/59 335/437/61
f 289/430/60 288/438/62 349/439/62 350/431/60
f 294/440/60 277/441/60 339/442/60 356/443/60
f 273/444/64 274/436/61 335/437/61 334/445/64
f 288/438/62 287/446/65 348/447/65 349/439/62
f 285/448/66 301/449/66 361/450/66 347/451/66
f 272/452/67 273/444/64 334/445/64 333/453/67
f 323/454/68 324/455/68 299/456/68 312/457/68
f 313/458/68 298/459/68 301/460/68 326/461/68
f 322/462/68 309/463/68 300/464/68 325/465/68
f 321/466/68 308/467/68 309/463/68 322/462/68
f 320/468/68 307/469/68 308/467/68 321/466/68
f 327/470/68 319/471/68 318/472/68 328/473/68
f 328/473/68 318/472/68 317/474/68 302/475/68
f 302/475/68 317/474/68 316/476/68 326/461/68
f 324/455/68 314/477/68 316/476/68 325/465/68
f 310/478/68 313/458/68 314/477/68 315/479/68
f 311/480/68 298/459/68 313/458/68 310/478/68
f 299/456/68 324/455/68 325/465/68 300/464/68
f 318/472/68 321/466/68 322/462/68 317/474/68
f 315/479/68 314/477/68 324/455/68 323/454/68
f 306/481/68 307/469/68 320/468/68 319/471/68
f 305/482/68 327/470/68 328/473/68 304/483/68
f 306/481/68 319/471/68 327/470/68 305/482/68
f 317/474/68 322/462/68 325/465/68 316/476/68
f 319/471/68 320/468/68 321/466/68 318/472/68
f 314/477/68 313/458/68 326/461/68 316/476/68
f 303/484/68 302/475/68 326/461/68 301/460/68
f 304/483/68 328/473/68 302/475/68 303/484/68
f 243/485/69 244/486/70 305/487/70 304/488/69
f 240/489/71 242/490/72 303/491/72 301/492/71
f 230/349/56 229/355/57 290/424/57 291/418/56
f 405/351/50 219/333/50 280/421/50 407/420/50
f 245/493/67 246/494/73 307/495/73 306/496/67
f 251/376/74 262/375/75 323/454/75 312/457/74
f 231/343/54 230/349/56 291/418/56 292/411/54
f 397/347/52 217/497/52 278/415/52 399/414/52
f 248/498/76 239/499/77 300/500/77 309/501/76
f 232/344/55 231/343/54 292/411/54 293/410/55
f 221/340/53 218/339/53 279/407/53 282/406/53
f 246/494/73 247/502/78 308/503/78 307/495/73
f 406/335/52 233/504/52 294/505/52 408/506/52
f 219/333/51 220/326/51 281/507/51 280/421/51
f 247/502/78 248/498/76 309/501/76 308/503/78
f 220/326/50 223/325/49 284/508/49 281/507/50
f 222/509/79 221/340/52 282/406/52 283/510/79
f 249/399/80 250/401/81 311/480/81 310/478/80
f 207/511/82 208/512/83 269/513/83 268/514/82
f 215/357/84 222/509/79 283/510/79 276/427/84
f 254/400/60 249/399/80 310/478/80 315/479/60
f 208/512/83 209/515/85 270/516/85 269/513/83
f 223/325/49 207/511/86 268/514/86 284/508/49
f 209/515/85 210/517/87 271/518/87 270/516/85
f 225/519/88 224/520/89 285/448/89 286/521/88
f 210/517/87 211/522/67 272/452/67 271/518/87
f 239/523/90 232/344/90 293/410/90 300/524/90
f 226/525/65 225/519/88 286/521/88 287/446/65
f 211/522/67 212/526/64 273/444/64 272/452/67
f 224/520/66 240/527/66 301/449/66 285/448/66
f 262/375/75 254/400/60 315/479/60 323/454/75
f 227/369/62 226/525/65 287/446/65 288/438/62
f 212/526/64 213/367/61 274/436/61 273/444/64
f 233/372/60 216/371/60 277/441/60 294/440/60
f 228/361/60 227/369/62 288/438/62 289/430/60
f 213/367/61 214/358/59 275/426/59 274/436/61
f 242/490/72 243/485/69 304/488/69 303/491/72
f 217/364/60 234/363/60 295/433/60 278/432/60
f 229/355/57 228/361/60 289/430/60 290/424/57
f 214/358/59 215/357/58 276/427/58 275/426/59
f 332/528/68 333/529/68 350/530/68 349/531/68
f 333/529/68 334/532/68 351/533/68 350/530/68
f 331/534/68 332/528/68 349/531/68 348/535/68
f 334/532/68 335/536/68 352/537/68 351/533/68
f 335/536/68 336/538/68 353/539/68 352/537/68
f 336/538/68 337/540/68 354/541/68 353/539/68
f 329/542/68 331/534/68 348/535/68 346/543/68
f 330/544/68 329/542/68 346/543/68 347/545/68
f 344/546/68 330/544/68 347/545/68 361/547/68
f 343/548/68 344/546/68 361/547/68 360/549/68
f 338/550/68 343/548/68 360/549/68 355/551/68
f 337/540/68 345/552/68 362/553/68 354/541/68
f 345/552/68 342/554/68 359/555/68 362/553/68
f 342/554/68 341/556/68 358/557/68 359/555/68
f 409/558/68 338/550/68 355/551/68 410/559/68
f 401/560/68 340/435/68 357/434/68 402/561/68
f 408/506/52 294/505/52 356/562/52 410/563/52
f 280/421/51 281/507/51 343/564/51 338/422/51
f 400/565/50 296/566/50 358/567/50 402/568/50
f 281/507/50 284/508/49 344/569/49 343/564/50
f 296/566/91 299/570/91 359/571/91 358/567/91
f 283/510/79 282/406/52 342/409/52 345/572/79
f 268/514/82 269/513/83 329/573/83 330/574/82
f 298/575/92 297/576/92 355/577/92 360/578/92
f 276/427/84 283/510/79 345/572/79 337/428/84
f 269/513/83 270/516/85 331/579/85 329/573/83
f 301/449/52 298/575/52 360/578/52 361/450/52
f 284/508/49 268/514/86 330/574/86 344/569/49
f 270/516/85 271/518/87 332/580/87 331/579/85
f 299/570/50 300/524/50 362/581/50 359/571/50
f 286/521/88 285/448/89 347/451/89 346/582/88
f 271/518/87 272/452/67 333/453/67 332/580/87
f 300/524/90 293/410/90 354/413/90 362/581/90
f 287/446/65 286/521/88 346/582/88 348/447/65
f 366/583/63 383/584/63 384/585/63 367/586/63
f 367/586/63 384/585/63 385/587/63 368/588/63
f 365/589/63 382/590/63 383/584/63 366/583/63
f 368/588/63 385/587/63 386/591/63 369/592/63
f 369/592/63 386/591/63 387/593/63 370/594/63
f 370/594/63 387/593/63 388/595/63 371/596/63
f 363/597/63 380/598/63 382/590/63 365/589/63
f 364/599/63 381/600/63 380/598/63 363/597/63
f 378/601/63 395/602/63 381/600/63 364/599/63
f 377/603/63 394/604/63 395/602/63 378/601/63
f 372/605/63 389/606/63 394/604/63 377/603/63
f 371/596/63 388/595/63 396/607/63 379/608/63
f 379/608/63 396/607/63 393/609/63 376/610/63
f 376/610/63 393/609/63 392/611/63 375/612/63
f 411/613/63 412/614/63 389/606/63 372/605/63
f 403/615/63 404/616/63 391/366/63 374/365/63
f 238/617/91 235/618/91 392/619/91 393/620/91
f 221/340/52 222/509/79 379/621/79 376/341/52
f 208/512/83 207/511/82 364/622/82 363/623/83
f 236/336/92 237/624/92 394/625/92 389/337/92
f 222/509/79 215/357/84 371/360/84 379/621/79
f 209/515/85 208/512/83 363/623/83 365/626/85
f 237/624/52 240/527/52 395/627/52 394/625/52
f 207/511/86 223/325/49 378/328/49 364/622/86
f 210/517/87 209/515/85 365/626/85 366/628/87
f 239/523/50 238/617/50 393/620/50 396/629/50
f 224/520/89 225/519/88 380/630/88 381/631/89
f 211/522/67 210/517/87 366/628/87 367/632/67
f 232/344/90 239/523/90 396/629/90 388/345/90
f 225/519/88 226/525/65 382/633/65 380/630/88
f 212/526/64 211/522/67 367/632/67 368/634/64
f 240/527/66 224/520/66 381/631/66 395/627/66
f 226/525/65 227/369/62 383/370/62 382/633/65
f 213/367/61 212/526/64 368/634/64 369/368/61
f 375/612/63 392/611/63 404/616/63 403/615/63
f 295/635/50 400/565/50 402/568/50 357/636/50
f 341/556/68 401/560/68 402/561/68 358/557/68
f 234/330/50 398/329/50 400/565/50 295/635/50
f 218/339/52 397/347/52 399/414/52 279/407/52
f 279/407/52 399/414/52 401/417/52 341/408/52
f 217/497/52 397/347/52 403/348/52 374/637/52
f 235/618/50 398/329/50 404/332/50 392/619/50
f 373/374/63 390/373/63 412/614/63 411/613/63
f 297/576/52 408/506/52 410/563/52 355/577/52
f 339/442/68 409/558/68 410/559/68 356/443/68
f 250/401/63 237/382/63 236/638/63 406/639/63
f 216/352/50 405/351/50 407/420/50 277/640/50
f 277/640/50 407/420/50 409/423/50 339/641/50
f 219/333/50 405/351/50 411/354/50 372/334/50
f 233/504/52 406/335/52 412/338/52 390/642/52
f 238/377/63 251/376/63 398/643/63 235/644/63
f 250/401/81 406/639/93 408/645/93 311/480/81
f 398/643/94 251/376/74 312/457/74 400/646/94
f 312/457/68 299/456/68 296/647/68 400/646/68
f 298/459/68 311/480/68 408/645/68 297/648/68
f 244/486/70 245/493/67 306/496/67 305/487/70
